<?xml version="1.0" encoding="UTF-8" standalone="no"?>
<!-- Created with Inkscape (http://www.inkscape.org/) -->

<svg
   width="1080"
   height="1920"
   viewBox="0 0 285.75 508"
   version="1.1"
   id="svg1"
   inkscape:export-filename="BG.svg"
   inkscape:export-xdpi="96"
   inkscape:export-ydpi="96"
   xmlns:inkscape="http://www.inkscape.org/namespaces/inkscape"
   xmlns:sodipodi="http://sodipodi.sourceforge.net/DTD/sodipodi-0.dtd"
   xmlns="http://www.w3.org/2000/svg"
   xmlns:svg="http://www.w3.org/2000/svg">
  <sodipodi:namedview
     id="namedview1"
     pagecolor="#ffffff"
     bordercolor="#999999"
     borderopacity="1"
     inkscape:showpageshadow="2"
     inkscape:pageopacity="0"
     inkscape:pagecheckerboard="0"
     inkscape:deskcolor="#d1d1d1"
     inkscape:document-units="mm"
     inkscape:zoom="1"
     inkscape:cx="578.5"
     inkscape:cy="1474.5"
     inkscape:window-width="2560"
     inkscape:window-height="1361"
     inkscape:window-x="-9"
     inkscape:window-y="-9"
     inkscape:window-maximized="1"
     inkscape:current-layer="layer1" />
  <defs
     id="defs1" />
  <g
     inkscape:label="Layer 1"
     inkscape:groupmode="layer"
     id="layer1">
    <rect
       style="fill:#66a8ad;fill-opacity:1;stroke-width:0.0810001"
       id="rect8"
       width="285.75"
       height="508"
       x="5.6843419e-14"
       y="-6.3948846e-14"
       inkscape:label="BG"
       inkscape:export-filename="BG.svg"
       inkscape:export-xdpi="96"
       inkscape:export-ydpi="96" />
    <path
       id="path26"
       style="fill:#6aaaae;fill-opacity:1;stroke-width:0.0810001"
       d="m 76.127136,310.20587 c 0.408331,5.75186 0.779294,11.49308 1.07487,17.18087 0.295576,5.68775 0.516151,11.32195 0.623735,16.85943 0.05379,2.76876 0.07914,5.51342 0.07183,8.22844 -0.0073,2.71502 -0.04775,5.40067 -0.125574,8.05119 -0.07782,2.65048 -0.193144,5.26615 -0.350883,7.84138 -0.157739,2.57523 -0.357555,5.10985 -0.604614,7.59902 -0.02176,0.21926 0.514314,1.42653 1.469161,3.37447 0.954847,1.94794 2.328351,4.63657 3.980635,7.81916 3.304573,6.36515 7.725174,14.7055 12.144479,23.04511 4.419302,8.33957 8.837625,16.67871 12.138275,23.04045 1.65034,3.18089 3.02096,5.86758 3.97289,7.81296 0.95192,1.94538 1.485,3.14932 1.45934,3.36517 -0.0112,0.0944 -0.16208,-0.058 -0.43512,-0.42685 -0.27303,-0.36885 -0.66844,-0.95411 -1.1684,-1.72444 -0.99991,-1.54066 -2.41885,-3.82253 -4.11706,-6.59856 -3.39643,-5.55214 -7.909971,-13.0811 -12.424567,-20.61063 -4.514599,-7.52957 -9.030321,-15.06002 -12.429732,-20.61477 -1.699709,-2.77734 -3.120074,-5.06058 -4.122229,-6.60321 -0.50108,-0.77131 -0.897676,-1.35755 -1.172022,-1.72754 -0.274346,-0.37 -0.426533,-0.52406 -0.43925,-0.43098 -0.477549,3.4952 -1.021304,6.93299 -1.631425,10.31254 -0.610117,3.37959 -1.286684,6.7014 -2.030367,9.96477 -0.743679,3.26337 -1.554175,6.46833 -2.432409,9.61492 -0.878235,3.14655 -1.824287,6.23479 -2.83807,9.26403 -1.013783,3.02924 -2.095471,5.99976 -3.245797,8.91109 -1.150322,2.91129 -2.369279,5.76324 -3.657141,8.55606 -1.287859,2.79286 -2.644681,5.52672 -4.071069,8.20054 -1.426392,2.67378 -2.922187,5.28771 -4.488098,7.84189 -1.565915,2.55421 -3.201796,5.04871 -4.908228,7.48275 -1.706428,2.43404 -3.483519,4.80773 -5.331457,7.12101 -1.847939,2.31331 -3.766829,4.56624 -5.757272,6.75825 -1.990442,2.19201 -4.052762,4.32325 -6.186702,6.39341 -2.13394,2.07012 -4.33977,4.07929 -6.618201,6.02702 -2.278428,1.94772 -4.6294,3.83383 -7.053316,5.65857 -2.423916,1.82473 -4.920625,3.5879 -7.4910156,5.28908 C 5.3619397,504.78365 2.7178638,506.42294 0,508 H 234.01466 266.6354 285.75 c -2.18357,-2.06035 -4.38099,-4.06549 -6.59081,-6.02082 -2.20982,-1.95534 -4.43225,-3.86097 -6.66575,-5.72162 -2.23346,-1.86061 -4.47782,-3.67661 -6.7324,-5.45289 -0.93382,-0.73571 -1.87611,-1.4376 -2.81327,-2.16008 -1.32548,-1.02186 -2.64747,-2.0579 -3.97908,-3.05511 -2.27309,-1.70226 -4.55501,-3.36992 -6.84403,-5.00848 -2.28901,-1.63856 -4.58507,-3.24814 -6.88743,-4.83329 -3.10332,-2.13666 -6.22983,-4.18086 -9.35189,-6.24252 -1.51046,-0.99744 -3.01052,-2.03616 -4.52427,-3.02049 -3.99832,-2.59992 -8.01859,-5.11275 -12.03079,-7.65741 -5.30515,-3.36469 -10.60505,-6.75042 -15.90755,-10.12548 -3.78502,-2.40916 -7.55971,-4.86005 -11.33006,-7.32772 -0.86799,-0.56808 -1.74127,-1.11457 -2.60811,-1.68723 -4.63227,-3.06019 -9.24731,-6.18968 -13.83482,-9.42888 -0.5235,-0.36965 -1.04251,-0.75659 -1.56528,-1.12913 -1.76774,-1.25989 -3.5351,-2.52086 -5.29373,-3.81734 -1.50635,-1.1105 -3.00322,-2.25922 -4.50205,-3.3998 l -0.41755,-0.28938 -5.1e-4,-0.0264 c -0.62899,-0.48012 -1.26277,-0.94146 -1.89033,-1.4273 -2.26101,-1.75046 -4.51278,-3.53884 -6.75359,-5.37022 -2.24081,-1.83134 -4.471,-3.706 -6.689,-5.62859 -2.21797,-1.92263 -4.42352,-3.89327 -6.61613,-5.91747 -2.19261,-2.0242 -4.37192,-4.10179 -6.53655,-6.23786 -0.0104,-0.0102 -0.0206,-0.0213 -0.031,-0.0315 -2.15411,-2.12639 -4.29389,-4.31022 -6.41769,-6.55774 -2.13408,-2.25831 -4.2522,-4.58024 -6.3531,-6.97115 -2.10093,-2.39087 -4.18506,-4.85076 -6.25027,-7.38456 -2.06521,-2.5338 -4.11174,-5.14144 -6.13864,-7.82846 -2.0269,-2.68703 -4.03378,-5.45331 -6.01979,-8.30389 -1.98601,-2.85055 -3.95116,-5.78588 -5.893697,-8.81031 -1.942535,-3.02447 -3.862858,-6.13804 -5.759339,-9.34672 -1.896481,-3.20868 -3.768866,-6.51248 -5.616711,-9.91567 -1.847845,-3.40322 -3.671257,-6.90599 -5.467883,-10.51409 -1.79663,-3.60809 -3.566928,-7.32124 -5.309754,-11.14454 z" />
    <path
       style="fill:#6dacb0;fill-opacity:1;stroke:none;stroke-width:0.0810001"
       d="m 209.62271,197.90833 c -1.63333,-23.00747 -2.66557,-45.84719 -0.68909,-65.76055 0.17409,-1.75409 -35.37017,-66.730515 -35.16488,-68.457315 0.17953,-1.51016 36.10495,60.226105 36.30843,58.736865 C 217.71801,66.503475 242.26401,25.347115 285.75,0.11408481 H 0 C 69.87424,66.045505 153.85203,75.562705 209.62271,197.90833 Z"
       id="path11"
       sodipodi:nodetypes="csssccc" />
    <path
       d="m 164.28868,421.91171 c 1.49883,1.14058 2.9957,2.2893 4.50205,3.3998 1.75863,1.29648 3.52596,2.55745 5.29373,3.81734 l 0.21705,-0.27492 z"
       style="fill:#63a6ab;stroke-width:0.0810001"
       id="path20" />
    <path
       d="m 163.87062,421.59597 5.1e-4,0.0264 0.41755,0.28938 c -0.13919,-0.10591 -0.27894,-0.20955 -0.41806,-0.31574 z"
       style="fill:#63a6ab;stroke-width:0.0810001"
       id="path19" />
    <path
       d="m 135.35402,396.98299 c 0.0104,0.0102 0.0206,0.0213 0.031,0.0315 2.16463,2.1361 4.34394,4.21366 6.53655,6.23786 2.19261,2.0242 4.39814,3.99484 6.61613,5.91747 2.218,1.92262 4.4482,3.79722 6.689,5.62859 2.24081,1.83138 4.49255,3.61976 6.75359,5.37022 0.62756,0.48584 1.26134,0.94718 1.89033,1.4273 l -0.56069,-34.02376 -24.50857,-24.32151 z"
       style="fill:#63a6ab;fill-opacity:1;stroke-width:0.0810001"
       id="path18" />
    <path
       d="m 180.76261,434.04637 c 3.77037,2.46767 7.54504,4.91856 11.33006,7.32772 5.30252,3.37506 10.60238,6.76079 15.90755,10.12548 L 207.71859,434.42051 183.21,410.099 Z"
       style="fill:#63a6ab;fill-opacity:1;stroke-width:0.0810001"
       id="path22" />
    <path
       d="m 231.36107,466.4847 c 3.12206,2.06166 6.24857,4.10586 9.35189,6.24252 2.30236,1.58516 4.59842,3.19473 6.88743,4.83329 2.28902,1.63856 4.57094,3.30622 6.84403,5.00848 1.33161,0.99721 2.65359,2.03325 3.97908,3.05511 l -0.28112,-17.05735 -24.50858,-24.32152 z"
       style="fill:#63a6ab;fill-opacity:1;stroke-width:0.0810001"
       id="path24" />
    <path
       style="fill:#66a8ad;fill-opacity:1;stroke:#5aa1a5;stroke-width:0.381;stroke-dasharray:none;stroke-opacity:1"
       d="m 142.34583,375.04687 -1.32292,7.60677 6.54844,5.88698 1.38906,-9.26042"
       id="path27" />
    <path
       style="fill:#66a8ad;fill-opacity:1;stroke:#5aa1a5;stroke-width:0.381;stroke-dasharray:none;stroke-opacity:1"
       d="m 152.99531,383.51354 -1.32292,7.60677 6.68876,3.57187 1.24874,-6.94531"
       id="path28"
       sodipodi:nodetypes="cccc" />
    <path
       style="fill:#66a8ad;fill-opacity:1;stroke:#5aa1a5;stroke-width:0.381;stroke-dasharray:none;stroke-opacity:1"
       d="m 140.22917,387.94531 -1.32292,7.60677 4.95819,4.6709 2.97931,-8.04434"
       id="path29"
       sodipodi:nodetypes="cccc" />
    <path
       style="fill:#66a8ad;fill-opacity:1;stroke:#5aa1a5;stroke-width:0.381;stroke-dasharray:none;stroke-opacity:1"
       d="m 187.48606,423.63146 -2.21159,8.02772 6.31458,4.99831 1.62292,-8.37175"
       id="path31"
       sodipodi:nodetypes="cccc" />
    <path
       style="fill:#66a8ad;fill-opacity:1;stroke:#5aa1a5;stroke-width:0.381;stroke-dasharray:none;stroke-opacity:1"
       d="m 198.15491,433.10442 -2.16482,6.62455 6.54844,5.88698 1.38906,-9.26042"
       id="path32"
       sodipodi:nodetypes="cccc" />
    <path
       style="fill:#66a8ad;fill-opacity:1;stroke:#5aa1a5;stroke-width:0.381;stroke-dasharray:none;stroke-opacity:1"
       d="m 237.1328,456.33157 -1.88419,9.80506 7.10971,3.68869 1.38906,-9.26042"
       id="path33"
       sodipodi:nodetypes="cccc" />
    <path
       style="fill:#66a8ad;fill-opacity:1;stroke:#5aa1a5;stroke-width:0.381;stroke-dasharray:none;stroke-opacity:1"
       d="m 248.45646,465.68301 -1.93096,6.85842 6.82907,4.20318 2.65191,-7.24921"
       id="path34"
       sodipodi:nodetypes="cccc" />
    <path
       style="fill:#66a8ad;fill-opacity:1;stroke:#5aa1a5;stroke-width:0.381;stroke-dasharray:none;stroke-opacity:1"
       d="m 150.48177,395.60919 -1.32292,7.60676 6.54844,5.88698 1.38906,-9.26042"
       id="path35" />
  </g>
</svg>
