<?xml version="1.0" encoding="UTF-8" standalone="no"?>
<!-- Created with Inkscape (http://www.inkscape.org/) -->

<svg
   width="97.161232mm"
   height="96.801208mm"
   viewBox="0 0 97.161232 96.801208"
   version="1.1"
   id="svg1"
   xmlns:inkscape="http://www.inkscape.org/namespaces/inkscape"
   xmlns:sodipodi="http://sodipodi.sourceforge.net/DTD/sodipodi-0.dtd"
   xmlns="http://www.w3.org/2000/svg"
   xmlns:svg="http://www.w3.org/2000/svg">
  <sodipodi:namedview
     id="namedview1"
     pagecolor="#ffffff"
     bordercolor="#000000"
     borderopacity="0.25"
     inkscape:showpageshadow="2"
     inkscape:pageopacity="0.0"
     inkscape:pagecheckerboard="0"
     inkscape:deskcolor="#d1d1d1"
     inkscape:document-units="mm"
     inkscape:zoom="2.3355023"
     inkscape:cx="263.54074"
     inkscape:cy="311.28208"
     inkscape:window-width="1512"
     inkscape:window-height="945"
     inkscape:window-x="0"
     inkscape:window-y="37"
     inkscape:window-maximized="0"
     inkscape:current-layer="g28" />
  <defs
     id="defs1" />
  <g
     inkscape:label="Layer 1"
     inkscape:groupmode="layer"
     id="layer1"
     transform="translate(-18.311497,-21.348955)">
    <circle
       style="fill:#404040;stroke:none;stroke-width:1.629;stroke-dasharray:none;stroke-opacity:1"
       id="circle3"
       cx="66.975021"
       cy="69.871246"
       r="27.152037" />
    <path
       style="fill:#404040;fill-opacity:1;stroke:#b20000;stroke-width:1.4349;stroke-dasharray:none;stroke-opacity:1"
       d="M 44.629914,53.124356 37.135788,40.294649 51.132784,46.327867 Z"
       id="path10" />
    <path
       style="fill:#404040;fill-opacity:1;stroke:#b20000;stroke-width:1.4349;stroke-dasharray:none;stroke-opacity:1"
       d="M 50.888093,92.722534 38.058386,100.21666 44.091604,86.219664 Z"
       id="path9" />
    <path
       style="fill:#363636;fill-opacity:1;stroke:none;stroke-width:1.629;stroke-dasharray:none;stroke-opacity:1"
       d="m 45.427436,52.963296 c -0.32782,20.167093 5.269705,30.847983 34.422158,41.202448 -10.537043,4.032809 -17.542205,2.547056 -24.126688,0.40399 L 43.304658,83.743569 40.120493,75.464738 V 64.107877 l 3.396443,-8.278831 z"
       id="path3"
       sodipodi:nodetypes="cccccccc" />
    <path
       style="fill:#404040;fill-opacity:1;stroke:#b20000;stroke-width:1.4349;stroke-dasharray:none;stroke-opacity:1"
       d="M 83.814679,47.693002 96.644386,40.198876 90.611168,54.195872 Z"
       id="path11" />
    <path
       style="fill:#333333;fill-opacity:1;stroke:#b20000;stroke-width:1.4349;stroke-dasharray:none;stroke-opacity:1"
       d="M 90.486271,84.810704 97.980397,97.640411 83.983401,91.607193 Z"
       id="path12" />
    <circle
       style="fill:none;stroke:#ff0000;stroke-width:1.629;stroke-dasharray:none;stroke-opacity:1"
       id="path1"
       cx="66.975021"
       cy="69.871246"
       r="27.152037" />
    <path
       style="display:inline;fill:#ffffff;fill-opacity:1;stroke:none;stroke-width:1.629;stroke-dasharray:none;stroke-opacity:1"
       d="m 72.292935,48.609033 c 8.39342,4.664075 10.111697,10.066976 16.143917,16.421973 0.0083,-4.286856 -0.304814,-6.150642 -2.758782,-8.678747 -1.914875,-2.064 -3.2038,-3.2753 -6.675296,-5.336783 -3.5635,-1.740792 -4.502848,-2.194206 -6.709839,-2.406443 z"
       id="path4"
       sodipodi:nodetypes="ccccc" />
    <path
       style="fill:#666666;fill-opacity:1;stroke:#ff0000;stroke-width:1.629;stroke-dasharray:none;stroke-opacity:1"
       d="m 63.326319,42.172832 4.898168,-17.680605 4.737721,18.252882 z"
       id="path5" />
    <path
       style="fill:#666666;fill-opacity:1;stroke:#ff0000;stroke-width:1.629;stroke-dasharray:none;stroke-opacity:1"
       d="m 94.64885,66.543788 17.68061,4.898164 -18.252887,4.73773 z"
       id="path6" />
    <path
       style="fill:#666666;fill-opacity:1;stroke:#ff0000;stroke-width:1.629;stroke-dasharray:none;stroke-opacity:1"
       d="M 72.438058,97.326276 67.539894,115.00689 62.802164,96.753999 Z"
       id="path7" />
    <path
       style="fill:#666666;fill-opacity:1;stroke:#ff0000;stroke-width:1.629;stroke-dasharray:none;stroke-opacity:1"
       d="M 39.135383,73.315353 21.454769,68.417189 39.70766,63.679459 Z"
       id="path8" />
    <path
       style="fill:#404040;fill-opacity:1;stroke:none;stroke-width:1.629;stroke-dasharray:none;stroke-opacity:1"
       d="M 57.367721,60.87133 56.08404,60.084514 55.972314,59.633894 Z"
       id="path30" />
    <path
       style="fill:#404040;fill-opacity:1;stroke:none;stroke-width:1.629;stroke-dasharray:none;stroke-opacity:1"
       d="M 57.985847,60.067766 56.702166,59.28095 56.59044,58.83033 Z"
       id="path31" />
    <path
       style="fill:#404040;fill-opacity:1;stroke:none;stroke-width:1.629;stroke-dasharray:none;stroke-opacity:1"
       d="m 58.727599,59.264202 -1.283681,-0.786816 -0.111726,-0.45062 z"
       id="path32" />
    <path
       style="fill:#404040;fill-opacity:1;stroke:none;stroke-width:1.629;stroke-dasharray:none;stroke-opacity:1"
       d="m 57.955822,61.378314 -1.283681,-0.786816 -0.111726,-0.45062 z"
       id="path33" />
    <path
       style="fill:#404040;fill-opacity:1;stroke:none;stroke-width:1.629;stroke-dasharray:none;stroke-opacity:1"
       d="M 58.625041,60.668537 57.34136,59.881721 57.229634,59.431101 Z"
       id="path34" />
    <path
       style="fill:#404040;fill-opacity:1;stroke:none;stroke-width:1.629;stroke-dasharray:none;stroke-opacity:1"
       d="m 59.497053,59.735687 -1.283681,-0.786816 -0.111726,-0.45062 z"
       id="path35" />
    <g
       id="g30"
       inkscape:label="Skull"
       transform="matrix(0.68310853,0,0,0.68310853,-44.786611,18.463753)">
      <path
         id="path13"
         style="fill:#bfbfbf;fill-opacity:1;stroke:#000000;stroke-width:0.363046;stroke-dasharray:none;stroke-dashoffset:0;stroke-opacity:1"
         d="m 163.10317,53.73681 a 18.948814,16.976006 0 0 0 -18.94854,16.976377 18.948814,16.976006 0 0 0 2.99872,9.162599 16.088552,18.948814 0 0 0 15.94982,16.664704 16.088552,18.948814 0 0 0 15.94983,-16.664704 18.948814,16.976006 0 0 0 2.99872,-9.162599 18.948814,16.976006 0 0 0 -18.94855,-16.976377 z" />
      <path
         style="fill:#404040;fill-opacity:1;stroke:#000000;stroke-width:0.4582;stroke-dasharray:none;stroke-opacity:1"
         d="m 150.58595,67.758098 c 9.93487,7.590692 9.93487,7.590692 9.93487,7.590692 0,0 2.00931,4.576741 -4.13022,4.241858 -6.13954,-0.334883 -9.48837,-6.586043 -9.48837,-6.586043 0,0 -1.56279,-12.390688 3.68372,-5.246507 z"
         id="path14" />
      <path
         style="fill:#404040;fill-opacity:1;stroke:#000000;stroke-width:0.4582;stroke-dasharray:none;stroke-opacity:1"
         d="m 175.98387,67.758098 c -3.87139,3.92965 -6.94553,5.866166 -9.93487,7.590692 0,0 -2.00931,4.576741 4.13022,4.241858 6.13954,-0.334883 9.48837,-6.586043 9.48837,-6.586043 0,0 1.56279,-12.390688 -3.68372,-5.246507 z"
         id="path15"
         sodipodi:nodetypes="ccscc" />
      <g
         id="g28"
         style="fill:#404040">
        <path
           style="fill:#404040;fill-opacity:1;stroke:#000000;stroke-width:0.439169;stroke-dasharray:none;stroke-opacity:1"
           d="m 163.2511,83.135055 c 0,0 -1.28597,10.394545 -0.24641,11.648216 1.03955,1.25367 1.96668,-1.919296 1.96668,-1.919296 0,0 0.3714,-8.482163 -1.72027,-9.72892 z"
           id="path16" />
        <path
           style="fill:#404040;fill-opacity:1;stroke:#000000;stroke-width:0.439169;stroke-dasharray:none;stroke-opacity:1"
           d="m 166.31364,82.66061 c 0,0 -0.59821,10.456694 0.52171,11.639136 1.1199,1.182442 1.83593,-2.044722 1.83593,-2.044722 0,0 -0.18836,-8.488201 -2.35764,-9.594414 z"
           id="path17" />
        <path
           style="fill:#404040;fill-opacity:1;stroke:#000000;stroke-width:0.439169;stroke-dasharray:none;stroke-opacity:1"
           d="m 169.15814,81.896078 c 0,0 0.59626,9.796761 1.70167,10.769287 1.10538,0.972528 1.38584,-2.111506 1.38584,-2.111506 0,0 -1.07309,-7.875722 -3.08751,-8.657781 z"
           id="path18" />
        <path
           style="fill:#404040;fill-opacity:1;stroke:#000000;stroke-width:0.439169;stroke-dasharray:none;stroke-opacity:1"
           d="m 171.73733,80.828231 c 0,0 1.15655,7.958507 2.17277,8.724138 1.01622,0.765634 1.05551,-1.750638 1.05551,-1.750638 0,0 -1.44133,-6.384077 -3.22828,-6.9735 z"
           id="path19" />
        <path
           style="fill:#404040;fill-opacity:1;stroke:#000000;stroke-width:0.439169;stroke-dasharray:none;stroke-opacity:1"
           d="m 173.96164,80.127188 c 0,0 1.80597,5.750346 2.52288,6.200872 0.71691,0.450527 0.38898,-1.413529 0.38898,-1.413529 0,0 -1.75695,-4.554487 -2.91186,-4.787343 z"
           id="path20" />
        <path
           style="fill:#404040;fill-opacity:1;stroke:#000000;stroke-width:0.439169;stroke-dasharray:none;stroke-opacity:1"
           d="m 160.54131,82.771137 c 0,0 0.59821,10.456694 -0.52171,11.639136 -1.1199,1.182442 -1.83593,-2.044722 -1.83593,-2.044722 0,0 0.18836,-8.488201 2.35764,-9.594414 z"
           id="path21" />
        <path
           style="fill:#404040;fill-opacity:1;stroke:#000000;stroke-width:0.439169;stroke-dasharray:none;stroke-opacity:1"
           d="m 157.69681,82.006605 c 0,0 -0.59626,9.796761 -1.70167,10.769287 -1.10538,0.972528 -1.38584,-2.111506 -1.38584,-2.111506 0,0 1.07309,-7.875722 3.08751,-8.657781 z"
           id="path22" />
        <path
           style="fill:#404040;fill-opacity:1;stroke:#000000;stroke-width:0.439169;stroke-dasharray:none;stroke-opacity:1"
           d="m 155.11762,80.938758 c 0,0 -1.15655,7.958507 -2.17277,8.724138 -1.01622,0.765634 -1.05551,-1.750638 -1.05551,-1.750638 0,0 1.44133,-6.384077 3.22828,-6.9735 z"
           id="path23" />
        <path
           style="fill:#404040;fill-opacity:1;stroke:#000000;stroke-width:0.439169;stroke-dasharray:none;stroke-opacity:1"
           d="m 152.89331,80.237715 c 0,0 -1.80597,5.750346 -2.52288,6.200872 -0.71691,0.450527 -0.38898,-1.413529 -0.38898,-1.413529 0,0 1.75695,-4.554487 2.91186,-4.787343 z"
           id="path24" />
      </g>
      <g
         id="g29"
         style="fill:#404040">
        <path
           id="path27"
           style="fill:#404040;stroke:#000000;stroke-width:0.393788;stroke-dasharray:none;stroke-opacity:1"
           d="m 163.68643,76.880845 c -0.007,0.0022 -0.0143,0.0038 -0.0212,0.0061 -0.0311,0.01044 -0.0619,0.02183 -0.0923,0.0348 -0.0305,0.01297 -0.0603,0.02731 -0.09,0.04236 -0.0297,0.01506 -0.0591,0.03094 -0.0877,0.04766 -0.0287,0.01671 -0.0571,0.03425 -0.0847,0.0522 -0.0276,0.01796 -0.0546,0.03644 -0.0809,0.05522 -0.0263,0.01878 -0.0516,0.03757 -0.0764,0.05674 -0.0249,0.01917 -0.0487,0.03835 -0.0719,0.05749 -0.0232,0.01914 -0.046,0.03803 -0.0673,0.05674 -0.0425,0.03743 -0.0809,0.07355 -0.11499,0.106665 -0.0341,0.03311 -0.0643,0.06382 -0.0885,0.08926 -0.0484,0.05088 -0.0749,0.08246 -0.0749,0.08246 0,0 -0.003,0.05465 -0.006,0.151297 -0.004,0.09655 -0.008,0.235043 -0.0121,0.403966 -0.002,0.08446 -0.004,0.176613 -0.006,0.274605 -0.002,0.09801 -0.004,0.202397 -0.005,0.310918 -10e-4,0.108521 -0.002,0.221345 -7.5e-4,0.337394 1e-5,0.116027 7.2e-4,0.235062 0.002,0.35555 0.001,0.120487 0.004,0.242702 0.007,0.364628 0.003,0.121947 0.007,0.243509 0.0129,0.363871 0.005,0.120361 0.0112,0.239041 0.0189,0.354794 0.004,0.05786 0.008,0.115553 0.0129,0.171723 0.005,0.05615 0.0102,0.110854 0.0151,0.164914 0.005,0.05406 0.0106,0.107282 0.0166,0.158863 0.006,0.05158 0.012,0.10181 0.0189,0.150541 0.007,0.04874 0.015,0.09521 0.0227,0.140707 1.5e-4,9.13e-4 -2.7e-4,0.0021 0,0.003 0.0177,-0.02863 0.0357,-0.05647 0.0537,-0.087 0.0273,-0.04617 0.0546,-0.09446 0.0825,-0.144489 0.0278,-0.05003 0.0557,-0.101773 0.084,-0.155081 0.0282,-0.05331 0.057,-0.108125 0.0855,-0.164158 0.0283,-0.05605 0.0571,-0.113518 0.0855,-0.171723 0.0284,-0.05821 0.0564,-0.117221 0.0847,-0.177018 0.0283,-0.0598 0.0567,-0.120742 0.0847,-0.181558 0.056,-0.121633 0.11051,-0.244567 0.16415,-0.366897 0.0537,-0.122329 0.10572,-0.243902 0.15584,-0.362359 0.006,-0.01435 0.0114,-0.02735 0.0174,-0.04161 0.0266,0.05955 0.0527,0.118151 0.0802,0.178532 0.0499,0.109695 0.10154,0.220273 0.15357,0.330586 0.0521,0.110293 0.10546,0.220318 0.15886,0.328316 0.0534,0.107997 0.10658,0.21418 0.16037,0.316969 0.0268,0.0514 0.054,0.101763 0.081,0.151298 0.0268,0.04956 0.0535,0.09792 0.0802,0.145246 0.0267,0.04733 0.053,0.09368 0.0794,0.138438 0.0263,0.04476 0.0528,0.0883 0.0787,0.130116 0.026,0.04182 0.0518,0.08176 0.0772,0.120282 5.1e-4,7.72e-4 5.6e-4,0.0015 7.6e-4,0.0023 0.005,-0.03336 0.01,-0.06618 0.0136,-0.10137 0.006,-0.05325 0.0121,-0.10867 0.0174,-0.165671 0.005,-0.05701 0.0101,-0.115331 0.0144,-0.175505 0.004,-0.06017 0.008,-0.121837 0.0114,-0.184584 0.003,-0.06273 0.006,-0.126669 0.009,-0.191391 0.003,-0.06473 0.005,-0.130571 0.006,-0.196688 0.002,-0.06612 0.003,-0.132781 0.004,-0.199713 0.002,-0.133866 0.003,-0.268122 0.003,-0.401696 -2.7e-4,-0.133573 -0.002,-0.266278 -0.003,-0.394887 -0.002,-0.128588 -0.005,-0.253282 -0.008,-0.372193 -0.003,-0.118909 -0.007,-0.2321 -0.0106,-0.336638 -0.004,-0.104538 -0.007,-0.201275 -0.0113,-0.286709 -0.004,-0.08545 -0.006,-0.159976 -0.01,-0.221651 -0.006,-0.123331 -0.0106,-0.193662 -0.0106,-0.193662 -0.0247,-0.03657 -0.0491,-0.07248 -0.0734,-0.106665 -0.0243,-0.03419 -0.0485,-0.06726 -0.0726,-0.0991 -0.024,-0.03186 -0.0474,-0.06271 -0.0711,-0.09229 -0.0235,-0.02961 -0.0472,-0.05809 -0.0704,-0.08548 -0.0232,-0.02739 -0.0461,-0.05343 -0.0688,-0.07868 -0.0228,-0.02525 -0.0458,-0.04945 -0.0681,-0.07262 -0.0223,-0.02317 -0.0439,-0.04543 -0.0658,-0.06657 -0.022,-0.02113 -0.0442,-0.04062 -0.0658,-0.05976 -0.0215,-0.01915 -0.0423,-0.03798 -0.0635,-0.05522 -0.0212,-0.01723 -0.042,-0.03381 -0.0628,-0.04917 -0.0207,-0.01539 -0.0417,-0.02954 -0.062,-0.04312 -0.0203,-0.01358 -0.0405,-0.026 -0.0605,-0.03782 -0.0199,-0.01185 -0.0394,-0.02238 -0.059,-0.03253 -0.0196,-0.01014 -0.0391,-0.01947 -0.0582,-0.02799 -0.0191,-0.0085 -0.038,-0.0165 -0.0567,-0.02345 -0.003,-0.0011 -0.006,-0.002 -0.009,-0.003 -7.4e-4,-7.24e-4 -0.002,-0.0016 -0.002,-0.0023 -0.01,-0.0096 -0.0195,-0.01766 -0.0295,-0.02648 z" />
      </g>
    </g>
  </g>
</svg>
