<?xml version="1.0" encoding="UTF-8" standalone="no"?>
<!-- Created with Inkscape (http://www.inkscape.org/) -->

<svg
   width="112.97313mm"
   height="33.789925mm"
   viewBox="0 0 112.97313 33.789925"
   version="1.1"
   id="svg1"
   xml:space="preserve"
   inkscape:version="1.3 (0e150ed6c4, 2023-07-21)"
   sodipodi:docname="flappyBirb.svg.2023_12_01_21_09_33.0.svg"
   xmlns:inkscape="http://www.inkscape.org/namespaces/inkscape"
   xmlns:sodipodi="http://sodipodi.sourceforge.net/DTD/sodipodi-0.dtd"
   xmlns="http://www.w3.org/2000/svg"
   xmlns:svg="http://www.w3.org/2000/svg"><sodipodi:namedview
     id="namedview1"
     pagecolor="#ffffff"
     bordercolor="#999999"
     borderopacity="1"
     inkscape:showpageshadow="2"
     inkscape:pageopacity="0"
     inkscape:pagecheckerboard="0"
     inkscape:deskcolor="#d1d1d1"
     inkscape:document-units="mm"
     inkscape:zoom="1.0218083"
     inkscape:cx="687.50663"
     inkscape:cy="1535.0237"
     inkscape:window-width="2560"
     inkscape:window-height="1361"
     inkscape:window-x="-9"
     inkscape:window-y="-9"
     inkscape:window-maximized="1"
     inkscape:current-layer="layer1"
     showgrid="false"
     showguides="true"><inkscape:grid
       id="grid9"
       units="mm"
       originx="-78.47829"
       originy="-1501.6498"
       spacingx="0.99999998"
       spacingy="1"
       empcolor="#0099e5"
       empopacity="0.30196078"
       color="#0099e5"
       opacity="0.14901961"
       empspacing="5"
       dotted="false"
       gridanglex="30"
       gridanglez="30"
       visible="false" /></sodipodi:namedview><defs
     id="defs1" /><g
     inkscape:label="Layer 1"
     inkscape:groupmode="layer"
     id="layer1"
     transform="translate(-20.764047,-397.31151)"><g
       id="g76"
       inkscape:label="Wing2"
       transform="rotate(-18.289801,66.198834,461.69809)"><g
         id="g74"
         transform="matrix(1.218622,0.23764363,-0.13203448,0.67706474,36.509367,334.27177)"><g
           id="g73"><ellipse
             style="fill:#ececec;fill-opacity:1;stroke:none;stroke-width:1.53833;stroke-opacity:1"
             id="ellipse73"
             cx="60.881512"
             cy="73.519089"
             rx="16.183523"
             ry="9.8395815"
             transform="rotate(17.572504)" /></g><path
           id="path73"
           style="fill:#e0e0e0;fill-opacity:1;stroke:none;stroke-width:1.53833;stroke-opacity:1"
           d="M 27.822644,78.23537 A 16.183523,9.8395815 17.572504 0 0 20.415861,83.583364 16.183523,9.8395815 17.572504 0 0 32.873498,97.849678 16.183523,9.8395815 17.572504 0 0 47.476742,97.502928 16.183523,9.8395815 17.572504 0 1 36.484648,96.649748 16.183523,9.8395815 17.572504 0 1 24.02701,82.38292 16.183523,9.8395815 17.572504 0 1 27.822644,78.23537 Z" /></g><ellipse
         style="fill:none;fill-opacity:1;stroke:#000000;stroke-width:1.50539;stroke-opacity:1"
         id="ellipse74"
         transform="matrix(0.93506575,0.35447433,-0.66088124,0.7504905,0,0)"
         ry="7.4598169"
         rx="20.144203"
         cy="376.31323"
         cx="339.15891" /></g><ellipse
       style="fill:#a3f8ff;fill-opacity:1;stroke:none;stroke-width:0.936263;stroke-dasharray:none;stroke-opacity:1"
       id="path62"
       cx="86.37957"
       cy="415.44833"
       rx="47.347214"
       ry="15.162067" /><path
       style="fill:#d1fbff;fill-opacity:1;stroke:none;stroke-width:1.281;stroke-dasharray:none;stroke-opacity:1"
       d="m 91.845354,407.87118 c 3.570357,10.80174 -0.183094,14.46456 -0.183094,14.46456 0.32528,-4.82152 0.375642,-9.64304 0.183094,-14.46456 z"
       id="path64"
       sodipodi:nodetypes="ccc" /><path
       style="fill:#d1fbff;fill-opacity:1;stroke:none;stroke-width:1.281;stroke-dasharray:none;stroke-opacity:1"
       d="m 96.056548,407.87118 c 3.570351,10.80174 -0.1831,14.46456 -0.1831,14.46456 0.680396,-4.84288 0.754203,-9.66484 0.1831,-14.46456 z"
       id="path65"
       sodipodi:nodetypes="ccc" /><path
       style="fill:#d1fbff;fill-opacity:1;stroke:none;stroke-width:1.281;stroke-dasharray:none;stroke-opacity:1"
       d="m 100.26774,407.87118 c 3.57036,10.80174 -0.1831,14.46456 -0.1831,14.46456 0.96601,-4.81887 0.97032,-9.60744 0.1831,-14.46456 z"
       id="path66"
       sodipodi:nodetypes="ccc" /><ellipse
       style="fill:none;fill-opacity:1;stroke:#000000;stroke-width:0.936263;stroke-dasharray:none;stroke-opacity:1"
       id="ellipse67"
       cx="85.921829"
       cy="415.47122"
       rx="47.347214"
       ry="15.162067" /><g
       id="g75"
       inkscape:label="Wing"
       transform="rotate(-17.371985,71.915403,452.38149)"><g
         id="g63"
         transform="matrix(1.218622,0.23764363,-0.13203448,0.67706474,23.455062,336.36927)"><g
           id="g62"><ellipse
             style="fill:#ececec;fill-opacity:1;stroke:none;stroke-width:1.53833;stroke-opacity:1"
             id="ellipse62"
             cx="60.881512"
             cy="73.519089"
             rx="16.183523"
             ry="9.8395815"
             transform="rotate(17.572504)" /></g><path
           id="path63"
           style="fill:#e0e0e0;fill-opacity:1;stroke:none;stroke-width:1.53833;stroke-opacity:1"
           d="M 27.822644,78.23537 A 16.183523,9.8395815 17.572504 0 0 20.415861,83.583364 16.183523,9.8395815 17.572504 0 0 32.873498,97.849678 16.183523,9.8395815 17.572504 0 0 47.476742,97.502928 16.183523,9.8395815 17.572504 0 1 36.484648,96.649748 16.183523,9.8395815 17.572504 0 1 24.02701,82.38292 16.183523,9.8395815 17.572504 0 1 27.822644,78.23537 Z" /></g><ellipse
         style="fill:none;fill-opacity:1;stroke:#000000;stroke-width:1.50539;stroke-opacity:1"
         id="ellipse68"
         transform="matrix(0.93506575,0.35447433,-0.66088124,0.7504905,0,0)"
         ry="7.4598169"
         rx="20.144203"
         cy="383.35229"
         cx="330.1731" /></g><path
       id="path68"
       style="fill:#ececec;fill-opacity:1;stroke:none;stroke-width:0.988981;stroke-opacity:1"
       d="m 125.70694,403.8336 a 9.7341493,6.7613593 11.310815 0 0 -4.36913,-1.97711 9.7341493,6.7613593 11.310815 0 0 -7.52407,7.27948 9.7341493,6.7613593 11.310815 0 0 7.48408,6.09001 9.7341493,6.7613593 11.310815 0 0 7.52242,-7.28027 9.7341493,6.7613593 11.310815 0 0 -3.1133,-4.11211 z" /><path
       id="path71"
       style="fill:none;fill-opacity:1;stroke:#000000;stroke-width:0.999502;stroke-opacity:1"
       d="m 125.75572,403.78577 a 9.8419778,6.8302747 11.280954 0 0 -4.41769,-1.99718 9.8419778,6.8302747 11.280954 0 0 -7.60769,7.3534 9.8419778,6.8302747 11.280954 0 0 7.56727,6.15186 9.8419778,6.8302747 11.280954 0 0 7.60601,-7.3542 9.8419778,6.8302747 11.280954 0 0 -3.1479,-4.15388 z" /><ellipse
       style="fill:#000000;fill-opacity:1;stroke:#000000;stroke-width:0.734886;stroke-dasharray:none;stroke-opacity:1"
       id="ellipse71"
       cx="119.48214"
       cy="408.15869"
       rx="2.0460639"
       ry="3.3827417" /><ellipse
       style="fill:#ffffff;fill-opacity:1;stroke:none;stroke-width:0.0574858;stroke-opacity:1"
       id="ellipse72"
       ry="0.88140106"
       rx="0.49359894"
       cy="406.71027"
       cx="120.43592" /><path
       style="fill:none;fill-opacity:1;stroke:#000000;stroke-width:1.281;stroke-dasharray:none;stroke-opacity:1"
       d="m 129.08213,421.70503 c 0,0 -15.49577,0.0258 -15.66743,-2.36271"
       id="path76"
       sodipodi:nodetypes="cc" /></g></svg>
