<?xml version="1.0" encoding="UTF-8" standalone="no"?>
<!-- Created with Inkscape (http://www.inkscape.org/) -->

<svg
   width="115.50314mm"
   height="69.538101mm"
   viewBox="0 0 115.50314 69.538101"
   version="1.1"
   id="svg1"
   xml:space="preserve"
   inkscape:version="1.3 (0e150ed6c4, 2023-07-21)"
   sodipodi:docname="flappyBirb.svg.2023_12_01_21_09_33.0.svg"
   xmlns:inkscape="http://www.inkscape.org/namespaces/inkscape"
   xmlns:sodipodi="http://sodipodi.sourceforge.net/DTD/sodipodi-0.dtd"
   xmlns="http://www.w3.org/2000/svg"
   xmlns:svg="http://www.w3.org/2000/svg"><sodipodi:namedview
     id="namedview1"
     pagecolor="#ffffff"
     bordercolor="#999999"
     borderopacity="1"
     inkscape:showpageshadow="2"
     inkscape:pageopacity="0"
     inkscape:pagecheckerboard="0"
     inkscape:deskcolor="#d1d1d1"
     inkscape:document-units="mm"
     inkscape:zoom="1.0218083"
     inkscape:cx="687.50663"
     inkscape:cy="1535.0237"
     inkscape:window-width="2560"
     inkscape:window-height="1361"
     inkscape:window-x="-9"
     inkscape:window-y="-9"
     inkscape:window-maximized="1"
     inkscape:current-layer="layer1"
     showgrid="false"
     showguides="true"><inkscape:grid
       id="grid9"
       units="mm"
       originx="-752.44951"
       originy="-1475.382"
       spacingx="0.99999998"
       spacingy="1"
       empcolor="#0099e5"
       empopacity="0.30196078"
       color="#0099e5"
       opacity="0.14901961"
       empspacing="5"
       dotted="false"
       gridanglex="30"
       gridanglez="30"
       visible="false" /></sodipodi:namedview><defs
     id="defs1" /><g
     inkscape:label="Layer 1"
     inkscape:groupmode="layer"
     id="layer1"
     transform="translate(-199.0856,-390.3615)"><g
       id="g96"
       inkscape:label="Wing"
       transform="matrix(1.1353485,-0.56457173,0.35518709,1.8046423,17.606701,-266.72812)"
       inkscape:export-filename="TankyBird.svg"
       inkscape:export-xdpi="96"
       inkscape:export-ydpi="96"><g
         id="g95"
         transform="matrix(1.218622,0.23764363,-0.13203448,0.67706474,23.455062,336.36927)"><g
           id="g94"><ellipse
             style="fill:#ececec;fill-opacity:1;stroke:none;stroke-width:1.53833;stroke-opacity:1"
             id="ellipse94"
             cx="60.881512"
             cy="73.519089"
             rx="16.183523"
             ry="9.8395815"
             transform="rotate(17.572504)" /></g><path
           id="path94"
           style="fill:#e0e0e0;fill-opacity:1;stroke:none;stroke-width:1.53833;stroke-opacity:1"
           d="M 27.822644,78.23537 A 16.183523,9.8395815 17.572504 0 0 20.415861,83.583364 16.183523,9.8395815 17.572504 0 0 32.873498,97.849678 16.183523,9.8395815 17.572504 0 0 47.476742,97.502928 16.183523,9.8395815 17.572504 0 1 36.484648,96.649748 16.183523,9.8395815 17.572504 0 1 24.02701,82.38292 16.183523,9.8395815 17.572504 0 1 27.822644,78.23537 Z" /></g><ellipse
         style="fill:none;fill-opacity:1;stroke:#000000;stroke-width:1.50539;stroke-opacity:1"
         id="ellipse95"
         transform="matrix(0.93506575,0.35447433,-0.66088124,0.7504905,0,0)"
         ry="7.4598169"
         rx="20.144203"
         cy="383.35229"
         cx="330.1731" /></g><ellipse
       style="fill:#c87137;fill-opacity:1;stroke:none;stroke-width:1.28526;stroke-dasharray:none;stroke-opacity:1"
       id="ellipse83"
       cx="267.17834"
       cy="430.56717"
       rx="47.224358"
       ry="28.646566" /><path
       style="fill:#b95e1e;fill-opacity:1;stroke:none;stroke-width:0.866;stroke-dasharray:none;stroke-opacity:1"
       d="m 233.80234,440.35983 c 1.79912,-1.84467 12.93905,-47.71612 -8.82899,-23.25136 -12.94378,14.54731 -8.54121,40.39786 45.47099,41.64353"
       id="path16"
       sodipodi:nodetypes="csc" /><ellipse
       style="fill:none;fill-opacity:1;stroke:#000000;stroke-width:1.28526;stroke-dasharray:none;stroke-opacity:1"
       id="ellipse85"
       cx="266.72177"
       cy="430.61041"
       rx="47.224358"
       ry="28.646566" /><g
       id="g88"
       inkscape:label="Wing"
       transform="matrix(1.1353485,-0.56457173,0.35518709,1.8046423,23.118579,-253.6321)"><g
         id="g87"
         transform="matrix(1.218622,0.23764363,-0.13203448,0.67706474,23.455062,336.36927)"><g
           id="g86"><ellipse
             style="fill:#ececec;fill-opacity:1;stroke:none;stroke-width:1.53833;stroke-opacity:1"
             id="ellipse86"
             cx="60.881512"
             cy="73.519089"
             rx="16.183523"
             ry="9.8395815"
             transform="rotate(17.572504)" /></g><path
           id="path86"
           style="fill:#e0e0e0;fill-opacity:1;stroke:none;stroke-width:1.53833;stroke-opacity:1"
           d="M 27.822644,78.23537 A 16.183523,9.8395815 17.572504 0 0 20.415861,83.583364 16.183523,9.8395815 17.572504 0 0 32.873498,97.849678 16.183523,9.8395815 17.572504 0 0 47.476742,97.502928 16.183523,9.8395815 17.572504 0 1 36.484648,96.649748 16.183523,9.8395815 17.572504 0 1 24.02701,82.38292 16.183523,9.8395815 17.572504 0 1 27.822644,78.23537 Z" /></g><ellipse
         style="fill:none;fill-opacity:1;stroke:#000000;stroke-width:1.50539;stroke-opacity:1"
         id="ellipse87"
         transform="matrix(0.93506575,0.35447433,-0.66088124,0.7504905,0,0)"
         ry="7.4598169"
         rx="20.144203"
         cy="383.35229"
         cx="330.1731" /></g><g
       id="g93"
       inkscape:label="Eye"
       transform="translate(169.90697,13.772355)"><path
         id="path91"
         style="fill:#ececec;fill-opacity:1;stroke:none;stroke-width:1.28725;stroke-opacity:1"
         d="m 113.56204,399.58788 a 11.985178,9.303233 19.480983 0 0 -5.29219,1.47742 11.985178,9.303233 19.480983 0 0 5.55005,13.39402 11.985178,9.303233 19.480983 0 0 12.77544,0.21446 11.985178,9.303233 19.480983 0 0 -5.55211,-13.3935 11.985178,9.303233 19.480983 0 0 -7.48119,-1.6924 z" /><path
         id="path92"
         style="fill:none;fill-opacity:1;stroke:#000000;stroke-width:1.28725;stroke-opacity:1"
         d="m 113.56203,399.58788 a 11.985178,9.303233 19.480983 0 0 -5.29218,1.47743 11.985178,9.303233 19.480983 0 0 5.55004,13.39402 11.985178,9.303233 19.480983 0 0 12.77545,0.21445 11.985178,9.303233 19.480983 0 0 -5.55211,-13.39349 11.985178,9.303233 19.480983 0 0 -7.4812,-1.69241 z" /><ellipse
         style="fill:#000000;fill-opacity:1;stroke:#000000;stroke-width:0.734886;stroke-dasharray:none;stroke-opacity:1"
         id="ellipse92"
         cx="121.53789"
         cy="409.09305"
         rx="2.0460639"
         ry="3.3827417" /><ellipse
         style="fill:#ffffff;fill-opacity:1;stroke:none;stroke-width:0.0574858;stroke-opacity:1"
         id="ellipse93"
         ry="0.88140106"
         rx="0.49359894"
         cy="425.27737"
         cx="-10.12729"
         transform="rotate(-18.134698)" /></g><g
       id="g98"
       inkscape:label="Eye"
       transform="matrix(0.74245778,0,0,0.8252238,214.91593,78.218321)"><path
         id="path96"
         style="fill:#ececec;fill-opacity:1;stroke:none;stroke-width:1.28725;stroke-opacity:1"
         d="m 113.56204,399.58788 a 11.985178,9.303233 19.480983 0 0 -5.29219,1.47742 11.985178,9.303233 19.480983 0 0 5.55005,13.39402 11.985178,9.303233 19.480983 0 0 12.77544,0.21446 11.985178,9.303233 19.480983 0 0 -5.55211,-13.3935 11.985178,9.303233 19.480983 0 0 -7.48119,-1.6924 z" /><path
         id="path97"
         style="fill:none;fill-opacity:1;stroke:#000000;stroke-width:1.28725;stroke-opacity:1"
         d="m 113.56203,399.58788 a 11.985178,9.303233 19.480983 0 0 -5.29218,1.47743 11.985178,9.303233 19.480983 0 0 5.55004,13.39402 11.985178,9.303233 19.480983 0 0 12.77545,0.21445 11.985178,9.303233 19.480983 0 0 -5.55211,-13.39349 11.985178,9.303233 19.480983 0 0 -7.4812,-1.69241 z" /><ellipse
         style="fill:#000000;fill-opacity:1;stroke:#000000;stroke-width:0.734886;stroke-dasharray:none;stroke-opacity:1"
         id="ellipse97"
         cx="121.09415"
         cy="408.25995"
         rx="2.0460639"
         ry="3.3827417" /><ellipse
         style="fill:#ffffff;fill-opacity:1;stroke:none;stroke-width:0.0575163;stroke-opacity:1"
         id="ellipse98"
         ry="0.88655382"
         rx="0.49125069"
         cy="423.2883"
         cx="18.388655"
         inkscape:transform-center-x="0.80823517"
         inkscape:transform-center-y="-1.2095406"
         transform="matrix(0.97943173,-0.20177585,0.24664175,0.96910673,0,0)" /></g><path
       style="fill:#fd684b;fill-opacity:1;stroke-width:0.0810001"
       d="m 293.98618,432.78866 -2.05759,1.81779 -0.48373,3.50113 1.26624,2.2216 2.65136,1.10662 3.65453,-0.13227 3.55487,-1.10328 4.1108,-2.22605 1.85693,-2.73203 -0.62699,-2.25058 -1.72016,-1.46949 -4.82587,-0.82016 -5.926,1.08831 -1.45439,1.11284"
       id="path12" /><path
       id="path11"
       style="fill:none;fill-opacity:1;stroke:#000000;stroke-width:1.281;stroke-dasharray:none;stroke-opacity:1"
       d="m 302.77958,430.66204 c -0.11808,-0.002 -0.23856,-0.002 -0.36122,0.001 -9.28766,0.20997 -11.54847,3.62984 -10.97349,7.44451 l -0.002,5.2e-4 c 0.0132,0.12688 0.0373,0.25286 0.0672,0.37827 0.006,0.0319 0.0114,0.0636 0.0181,0.0956 l 0.005,-0.002 c 0.72742,2.6709 5.24947,4.79884 13.3351,0.5364 3.4729,-1.83077 4.51065,-3.87984 3.04374,-6.12469 0,0 -1.47263,-2.26845 -5.13302,-2.32957 z" /><path
       style="fill:#b95e1e;fill-opacity:1;stroke:#000000;stroke-width:0.866;stroke-dasharray:none;stroke-opacity:1"
       d="m 229.06817,414.2841 c -1.99117,-0.11083 -14.23293,-4.58803 -14.23293,-4.58803 l 18.93081,1.59241"
       id="path14" /><path
       style="fill:#c87137;fill-opacity:1;stroke:#000000;stroke-width:0.866;stroke-dasharray:none;stroke-opacity:1"
       d="m 242.21723,407.47864 c -1.91155,-0.56833 -20.364,-16.7429 -20.364,-16.7429 l 25.62732,14.915"
       id="path15"
       sodipodi:nodetypes="ccc" /><path
       style="fill:#9a0000;fill-opacity:1;stroke:#000000;stroke-width:2.766;stroke-dasharray:none;stroke-opacity:1"
       d="m 279.44136,410.84619 12.6973,3.53206"
       id="path21"
       sodipodi:nodetypes="cc" /><path
       style="fill:#9a0000;fill-opacity:1;stroke:#000000;stroke-width:2.766;stroke-dasharray:none;stroke-opacity:1"
       d="m 293.61243,412.81684 5.76147,-7.1045"
       id="path22"
       sodipodi:nodetypes="cc" /><path
       style="fill:#d38d5f;fill-opacity:1;stroke:#000000;stroke-width:1.04965;stroke-dasharray:none;stroke-opacity:1"
       d="m 279.57456,405.88134 c 9.7516,-10.60459 11.99176,-7.87055 9.91722,2.67014"
       id="path23"
       sodipodi:nodetypes="cc" /></g></svg>
